<mxfile host="65bd71144e">
    <diagram id="R2lEEEUBdFMjLlhIrx00" name="Page-1">
        <mxGraphModel dx="1705" dy="1940" grid="1" gridSize="10" guides="1" tooltips="1" connect="1" arrows="1" fold="1" page="1" pageScale="1" pageWidth="850" pageHeight="1100" math="0" shadow="0" extFonts="Permanent Marker^https://fonts.googleapis.com/css?family=Permanent+Marker">
            <root>
                <mxCell id="0"/>
                <mxCell id="1" parent="0"/>
                <mxCell id="87" value="Delivery Squad Service Domain Model" style="ellipse;shape=cloud;whiteSpace=wrap;html=1;fillColor=#f5f5f5;fontColor=#CC0066;strokeColor=#000000;strokeWidth=2;labelPosition=center;verticalLabelPosition=top;align=center;verticalAlign=bottom;fontSize=20;" parent="1" vertex="1">
                    <mxGeometry x="290" y="29" width="780" height="540" as="geometry"/>
                </mxCell>
                <mxCell id="88" value="Delivery Squad" style="swimlane;fontStyle=0;childLayout=stackLayout;horizontal=1;startSize=30;horizontalStack=0;resizeParent=1;resizeParentMax=0;resizeLast=0;collapsible=1;marginBottom=0;fillColor=#f8cecc;strokeColor=#000000;fontSize=20;strokeWidth=2;" parent="1" vertex="1">
                    <mxGeometry x="522.5" y="123" width="165" height="210" as="geometry"/>
                </mxCell>
                <mxCell id="89" value="First Name" style="text;strokeColor=#000000;fillColor=none;align=left;verticalAlign=middle;spacingLeft=4;spacingRight=4;overflow=hidden;points=[[0,0.5],[1,0.5]];portConstraint=eastwest;rotatable=0;fontSize=20;strokeWidth=2;" parent="88" vertex="1">
                    <mxGeometry y="30" width="165" height="30" as="geometry"/>
                </mxCell>
                <mxCell id="90" value="Last Name" style="text;strokeColor=#000000;fillColor=none;align=left;verticalAlign=middle;spacingLeft=4;spacingRight=4;overflow=hidden;points=[[0,0.5],[1,0.5]];portConstraint=eastwest;rotatable=0;fontSize=20;strokeWidth=2;" parent="88" vertex="1">
                    <mxGeometry y="60" width="165" height="30" as="geometry"/>
                </mxCell>
                <mxCell id="91" value="Email Address" style="text;strokeColor=#000000;fillColor=none;align=left;verticalAlign=middle;spacingLeft=4;spacingRight=4;overflow=hidden;points=[[0,0.5],[1,0.5]];portConstraint=eastwest;rotatable=0;fontSize=20;strokeWidth=2;" parent="88" vertex="1">
                    <mxGeometry y="90" width="165" height="30" as="geometry"/>
                </mxCell>
                <mxCell id="93" value="Contact Number" style="text;strokeColor=#000000;fillColor=none;align=left;verticalAlign=middle;spacingLeft=4;spacingRight=4;overflow=hidden;points=[[0,0.5],[1,0.5]];portConstraint=eastwest;rotatable=0;fontSize=20;strokeWidth=2;" parent="88" vertex="1">
                    <mxGeometry y="120" width="165" height="30" as="geometry"/>
                </mxCell>
                <mxCell id="114" value="Monthly Pay" style="text;strokeColor=#000000;fillColor=none;align=left;verticalAlign=middle;spacingLeft=4;spacingRight=4;overflow=hidden;points=[[0,0.5],[1,0.5]];portConstraint=eastwest;rotatable=0;fontSize=20;strokeWidth=2;" parent="88" vertex="1">
                    <mxGeometry y="150" width="165" height="30" as="geometry"/>
                </mxCell>
                <mxCell id="100" value="Status" style="text;strokeColor=#000000;fillColor=none;align=left;verticalAlign=middle;spacingLeft=4;spacingRight=4;overflow=hidden;points=[[0,0.5],[1,0.5]];portConstraint=eastwest;rotatable=0;fontSize=20;strokeWidth=2;" parent="88" vertex="1">
                    <mxGeometry y="180" width="165" height="30" as="geometry"/>
                </mxCell>
                <mxCell id="94" value="Address" style="swimlane;fontStyle=0;childLayout=stackLayout;horizontal=1;startSize=30;horizontalStack=0;resizeParent=1;resizeParentMax=0;resizeLast=0;collapsible=1;marginBottom=0;fillColor=#ffe6cc;strokeColor=#000000;fontSize=20;strokeWidth=2;" parent="1" vertex="1">
                    <mxGeometry x="760" y="353" width="165" height="90" as="geometry"/>
                </mxCell>
                <mxCell id="95" value="Line" style="text;strokeColor=#000000;fillColor=none;align=left;verticalAlign=middle;spacingLeft=4;spacingRight=4;overflow=hidden;points=[[0,0.5],[1,0.5]];portConstraint=eastwest;rotatable=0;fontSize=20;strokeWidth=2;" parent="94" vertex="1">
                    <mxGeometry y="30" width="165" height="30" as="geometry"/>
                </mxCell>
                <mxCell id="111" value="Pincode" style="text;strokeColor=#000000;fillColor=none;align=left;verticalAlign=middle;spacingLeft=4;spacingRight=4;overflow=hidden;points=[[0,0.5],[1,0.5]];portConstraint=eastwest;rotatable=0;fontSize=20;strokeWidth=2;" parent="94" vertex="1">
                    <mxGeometry y="60" width="165" height="30" as="geometry"/>
                </mxCell>
                <mxCell id="102" value="Has" style="rhombus;whiteSpace=wrap;html=1;fontSize=20;fillColor=none;strokeWidth=2;strokeColor=#000000;" parent="1" vertex="1">
                    <mxGeometry x="560" y="383" width="80" height="80" as="geometry"/>
                </mxCell>
                <mxCell id="109" style="edgeStyle=none;html=1;exitX=0.47;exitY=1;exitDx=0;exitDy=0;entryX=0.5;entryY=0;entryDx=0;entryDy=0;fontSize=20;exitPerimeter=0;endArrow=block;endFill=1;strokeWidth=2;strokeColor=#000000;" parent="1" source="100" target="102" edge="1">
                    <mxGeometry relative="1" as="geometry"/>
                </mxCell>
                <mxCell id="110" style="edgeStyle=none;html=1;exitX=1;exitY=0.5;exitDx=0;exitDy=0;fontSize=20;endArrow=block;endFill=1;strokeWidth=2;strokeColor=#000000;" parent="1" source="102" edge="1">
                    <mxGeometry relative="1" as="geometry">
                        <mxPoint x="610.0500000000002" y="333" as="sourcePoint"/>
                        <mxPoint x="760" y="423" as="targetPoint"/>
                    </mxGeometry>
                </mxCell>
                <mxCell id="125" value="" style="ellipse;shape=cloud;whiteSpace=wrap;html=1;fillColor=#f5f5f5;fontColor=#CC0066;strokeColor=#000000;strokeWidth=2;labelPosition=center;verticalLabelPosition=top;align=center;verticalAlign=bottom;fontSize=20;" vertex="1" parent="1">
                    <mxGeometry x="-560" y="-30" width="890" height="620" as="geometry"/>
                </mxCell>
                <mxCell id="126" style="edgeStyle=none;html=1;exitX=0.5;exitY=1;exitDx=0;exitDy=0;entryX=0.5;entryY=0;entryDx=0;entryDy=0;strokeWidth=2;endArrow=block;endFill=1;" edge="1" parent="1" source="127" target="134">
                    <mxGeometry relative="1" as="geometry"/>
                </mxCell>
                <mxCell id="127" value="Deliver Squad" style="rounded=0;whiteSpace=wrap;html=1;labelBackgroundColor=none;labelBorderColor=none;spacing=0;fontSize=20;fillColor=#d5e8d4;strokeColor=#82b366;sketch=0;glass=0;fontFamily=Verdana;strokeWidth=2;" vertex="1" parent="1">
                    <mxGeometry x="-350" y="190" width="120" height="60" as="geometry"/>
                </mxCell>
                <mxCell id="128" value="Address" style="rounded=0;whiteSpace=wrap;html=1;labelBackgroundColor=none;labelBorderColor=none;spacing=0;fontSize=20;fillColor=#fff2cc;strokeColor=#d6b656;sketch=0;glass=0;fontFamily=Verdana;strokeWidth=2;" vertex="1" parent="1">
                    <mxGeometry x="-160" y="340" width="120" height="60" as="geometry"/>
                </mxCell>
                <mxCell id="129" style="edgeStyle=none;html=1;exitX=0;exitY=0.5;exitDx=0;exitDy=0;entryX=1;entryY=0.5;entryDx=0;entryDy=0;strokeWidth=2;endArrow=block;endFill=1;" edge="1" parent="1" source="130" target="132">
                    <mxGeometry relative="1" as="geometry"/>
                </mxCell>
                <mxCell id="130" value="Admin" style="rounded=0;whiteSpace=wrap;html=1;labelBackgroundColor=none;labelBorderColor=none;spacing=0;fontSize=20;fillColor=#dae8fc;strokeColor=#6c8ebf;sketch=0;glass=0;fontFamily=Verdana;strokeWidth=2;" vertex="1" parent="1">
                    <mxGeometry x="50" y="190" width="120" height="60" as="geometry"/>
                </mxCell>
                <mxCell id="131" style="edgeStyle=none;html=1;exitX=0;exitY=0.5;exitDx=0;exitDy=0;entryX=1;entryY=0.5;entryDx=0;entryDy=0;strokeWidth=2;endArrow=block;endFill=1;" edge="1" parent="1" source="132" target="127">
                    <mxGeometry relative="1" as="geometry"/>
                </mxCell>
                <mxCell id="132" value="Recruits" style="rhombus;whiteSpace=wrap;html=1;fontSize=20;fillColor=none;strokeWidth=2;strokeColor=#000000;fontFamily=Verdana;" vertex="1" parent="1">
                    <mxGeometry x="-160" y="170" width="110" height="100" as="geometry"/>
                </mxCell>
                <mxCell id="133" style="edgeStyle=none;html=1;exitX=1;exitY=0.5;exitDx=0;exitDy=0;strokeWidth=2;endArrow=block;endFill=1;" edge="1" parent="1" source="134" target="128">
                    <mxGeometry relative="1" as="geometry"/>
                </mxCell>
                <mxCell id="134" value="Has" style="rhombus;whiteSpace=wrap;html=1;fontSize=20;fillColor=none;strokeWidth=2;strokeColor=#000000;fontFamily=Verdana;" vertex="1" parent="1">
                    <mxGeometry x="-345" y="320" width="110" height="100" as="geometry"/>
                </mxCell>
            </root>
        </mxGraphModel>
    </diagram>
</mxfile>